<?xml version="1.0" encoding="utf-8"?>
<!-- Generator: Adobe Illustrator 21.1.0, SVG Export Plug-In . SVG Version: 6.00 Build 0)  -->
<svg version="1.1" id="Layer_1" xmlns="http://www.w3.org/2000/svg" xmlns:xlink="http://www.w3.org/1999/xlink" x="0px" y="0px"
	 viewBox="0 0 111 36" style="enable-background:new 0 0 111 36;" xml:space="preserve">
<style type="text/css">
	.st0{filter:url(#Adobe_OpacityMaskFilter);}
	.st1{fill:#FFFFFF;}
	.st2{mask:url(#mask-2);fill:#EE3636;}
	.st3{filter:url(#Adobe_OpacityMaskFilter_1_);}
	.st4{mask:url(#mask-4);fill:#EE3636;}
	.st5{filter:url(#Adobe_OpacityMaskFilter_2_);}
	.st6{mask:url(#mask-6);fill:#EE3636;}
</style>
<title>Slice 1</title>
<desc>Created with Sketch.</desc>
<g id="Page-1">
	<g id="pop">
		<g id="Group-3" transform="translate(0.000000, 0.010444)">
			<g id="Clip-2">
			</g>
			<defs>
				<filter id="Adobe_OpacityMaskFilter" filterUnits="userSpaceOnUse" x="20.6" y="7.6" width="21.8" height="21.7">
					<feColorMatrix  type="matrix" values="1 0 0 0 0  0 1 0 0 0  0 0 1 0 0  0 0 0 1 0"/>
				</filter>
			</defs>
			<mask maskUnits="userSpaceOnUse" x="20.6" y="7.6" width="21.8" height="21.7" id="mask-2">
				<g class="st0">
					<polygon id="path-1" class="st1" points="42.5,29.3 20.6,29.3 20.6,7.6 42.5,7.6 					"/>
				</g>
			</mask>
			<path id="Fill-1" class="st2" d="M26.2,12.3c-0.4,0-0.8,0.3-0.8,0.8v16.2h-4.8V13.1c0-3,2.5-5.4,5.6-5.4h10.7
				c3.1,0,5.6,2.4,5.6,5.4v7.3c0,3-2.5,5.4-5.6,5.4h-9.1v-4.7h9.1c0.4,0,0.8-0.3,0.8-0.8v-7.3c0-0.4-0.4-0.8-0.8-0.8H26.2z"/>
		</g>
		<g id="Group-6" transform="translate(37.338354, 0.010444)">
			<g id="Clip-5">
			</g>
			<defs>
				<filter id="Adobe_OpacityMaskFilter_1_" filterUnits="userSpaceOnUse" x="7.5" y="7.6" width="21.8" height="18.2">
					<feColorMatrix  type="matrix" values="1 0 0 0 0  0 1 0 0 0  0 0 1 0 0  0 0 0 1 0"/>
				</filter>
			</defs>
			<mask maskUnits="userSpaceOnUse" x="7.5" y="7.6" width="21.8" height="18.2" id="mask-4">
				<g class="st3">
					<polygon id="path-3" class="st1" points="29.4,7.6 7.5,7.6 7.5,25.8 29.4,25.8 					"/>
				</g>
			</mask>
			<path id="Fill-4" class="st4" d="M13.1,12.3c-0.4,0-0.8,0.3-0.8,0.8v7.3c0,0.4,0.4,0.8,0.8,0.8h10.7c0.4,0,0.8-0.3,0.8-0.8v-7.3
				c0-0.4-0.4-0.8-0.8-0.8H13.1z M13.1,7.6h10.7c3.1,0,5.6,2.4,5.6,5.4v7.3c0,3-2.5,5.4-5.6,5.4H13.1c-3.1,0-5.6-2.4-5.6-5.4v-7.3
				C7.5,10.1,10,7.6,13.1,7.6L13.1,7.6z"/>
		</g>
		<g id="Group-9" transform="translate(75.210113, 0.010444)">
			<g id="Clip-8">
			</g>
			<defs>
				<filter id="Adobe_OpacityMaskFilter_2_" filterUnits="userSpaceOnUse" x="-6.1" y="7.6" width="21.8" height="21.7">
					<feColorMatrix  type="matrix" values="1 0 0 0 0  0 1 0 0 0  0 0 1 0 0  0 0 0 1 0"/>
				</filter>
			</defs>
			<mask maskUnits="userSpaceOnUse" x="-6.1" y="7.6" width="21.8" height="21.7" id="mask-6">
				<g class="st5">
					<polygon id="path-5" class="st1" points="-6.1,29.3 15.7,29.3 15.7,7.6 -6.1,7.6 					"/>
				</g>
			</mask>
			<path id="Fill-7" class="st6" d="M-0.5,12.3c-0.4,0-0.8,0.3-0.8,0.8v16.2h-4.8V13.1c0-3,2.5-5.4,5.6-5.4h10.7
				c3.1,0,5.6,2.4,5.6,5.4v7.3c0,3-2.5,5.4-5.6,5.4H1.1v-4.7h9.1c0.4,0,0.8-0.3,0.8-0.8v-7.3c0-0.4-0.4-0.8-0.8-0.8H-0.5z"/>
		</g>
	</g>
</g>
</svg>
